<svg width="1080" height="1920" viewBox="0 0 1080 1920" fill="none" xmlns="http://www.w3.org/2000/svg">
<rect width="1080" height="1920" fill="#F4DBDB"/>
<g filter="url(#filter0_i)">
<rect x="716.695" y="952.711" width="51.2315" height="46.3054" transform="rotate(30 716.695 952.711)" fill="#23B6B6"/>
</g>
<rect x="718.708" y="960.224" width="40.2315" height="35.3054" transform="rotate(30 718.708 960.224)" stroke="#594949" stroke-width="11"/>
<g filter="url(#filter1_i)">
<rect x="286" y="858.615" width="51.2315" height="46.3054" transform="rotate(-30 286 858.615)" fill="#23B6B6"/>
</g>
<rect x="293.513" y="860.628" width="40.2315" height="35.3054" transform="rotate(-30 293.513 860.628)" stroke="#594949" stroke-width="11"/>
<g filter="url(#filter2_i)">
<rect x="427.961" y="809.115" width="72.1259" height="65.1907" transform="rotate(30 427.961 809.115)" fill="#23B6B6"/>
</g>
<rect x="429.974" y="816.628" width="61.1259" height="54.1907" transform="rotate(30 429.974 816.628)" stroke="#594949" stroke-width="11"/>
<g filter="url(#filter3_i)">
<circle cx="690.5" cy="1060.29" r="74.5" fill="#23B6B6"/>
</g>
<circle cx="690.5" cy="1060.29" r="69" stroke="#594949" stroke-width="11"/>
<g filter="url(#filter4_i)">
<circle cx="391" cy="960.795" r="105" fill="#23B6B6"/>
</g>
<circle cx="391" cy="960.795" r="99.5" stroke="#594949" stroke-width="11"/>
<g filter="url(#filter5_i)">
<path d="M616 1072.79C616 1066.17 621.373 1060.79 628 1060.79L753 1060.79C759.627 1060.79 765 1066.17 765 1072.79L765 1223.86C765 1268.56 728.763 1304.79 684.062 1304.79C646.472 1304.79 616 1274.32 616 1236.73L616 1072.79Z" fill="#6CAF37"/>
</g>
<path d="M622 1072.79C622 1069.48 624.686 1066.79 628 1066.79L753 1066.79C756.314 1066.79 759 1069.48 759 1072.79L759 1223.86C759 1265.24 725.449 1298.79 684.062 1298.79C649.786 1298.79 622 1271.01 622 1236.73L622 1072.79Z" stroke="#594949" stroke-width="12"/>
<g filter="url(#filter6_i)">
<path d="M286 972.795C286 966.168 291.373 960.795 298 960.795L484 960.795C490.627 960.795 496 966.168 496 972.795L496 1216.79C496 1265.4 456.601 1304.79 408 1304.79L360 1304.79C319.131 1304.79 286 1271.66 286 1230.79L286 972.795Z" fill="#9D7044"/>
</g>
<path d="M292 972.795C292 969.481 294.686 966.795 298 966.795L484 966.795C487.314 966.795 490 969.481 490 972.795L490 1216.79C490 1262.08 453.287 1298.79 408 1298.79L360 1298.79C322.445 1298.79 292 1268.35 292 1230.79L292 972.795Z" stroke="#594949" stroke-width="12"/>
<rect x="677" y="1028.79" width="26" height="5" fill="#544141"/>
<rect x="325" y="915.795" width="36" height="8" fill="#544141"/>
<rect x="712" y="1028.79" width="26" height="5" fill="#544141"/>
<rect x="422" y="915.795" width="35" height="8" fill="#544141"/>
<g filter="url(#filter7_i)">
<path d="M612.227 617L666.5 646.5L698.898 667.04L653.67 745.378L566.998 695.338L612.227 617Z" fill="#23B6B6"/>
</g>
<path d="M574.511 693.325L614.31 624.392L663.711 651.244L691.497 668.86L651.657 737.865L574.511 693.325Z" stroke="#594949" stroke-width="11"/>
<g filter="url(#filter8_i)">
<path d="M378 666.039L407.5 649.5L464.672 615.999L509.9 694.337L423.228 744.377L378 666.039Z" fill="#23B6B6"/>
</g>
<path d="M410.281 654.245L462.676 623.543L502.387 692.324L425.242 736.864L385.548 668.113L410.19 654.297L410.235 654.272L410.281 654.245Z" stroke="#594949" stroke-width="11"/>
<rect x="343" y="1133" width="55" height="22" fill="#9D7B5A"/>
<g filter="url(#filter9_i)">
<ellipse cx="538" cy="827.295" rx="146" ry="145.5" fill="#23B6B6"/>
</g>
<path d="M678.5 827.295C678.5 904.597 615.614 967.295 538 967.295C460.386 967.295 397.5 904.597 397.5 827.295C397.5 749.993 460.386 687.295 538 687.295C615.614 687.295 678.5 749.993 678.5 827.295Z" stroke="#594949" stroke-width="11"/>
<g filter="url(#filter10_i)">
<path d="M392 839.795C392 833.167 397.373 827.795 404 827.795L672 827.795C678.627 827.795 684 833.168 684 839.795L684 1216.79C684 1265.4 644.601 1304.79 596 1304.79L466 1304.79C425.131 1304.79 392 1271.66 392 1230.79L392 839.795Z" fill="#C34F4F"/>
</g>
<path d="M398 839.795C398 836.481 400.686 833.795 404 833.795L672 833.795C675.314 833.795 678 836.481 678 839.795L678 1216.79C678 1262.08 641.287 1298.79 596 1298.79L466 1298.79C428.445 1298.79 398 1268.35 398 1230.79L398 839.795Z" stroke="#594949" stroke-width="12"/>
<g filter="url(#filter11_i)">
<path d="M427 839C427 832.373 432.373 827 439 827L638 827C644.627 827 650 832.373 650 839L650 889C650 937.601 610.601 977 562 977L501 977C460.131 977 427 943.869 427 903L427 839Z" fill="#FFBDBD"/>
</g>
<path d="M433 839C433 835.686 435.686 833 439 833L638 833C641.314 833 644 835.686 644 839L644 889C644 934.287 607.287 971 562 971L501 971C463.445 971 433 940.555 433 903L433 839Z" stroke="#594949" stroke-width="12"/>
<path d="M612 960.265C612 952.124 603.835 944.315 589.301 938.559C574.767 932.802 555.054 938.559 534.5 938.559C513.946 938.559 494.233 932.802 479.699 938.559C465.165 944.315 457 952.124 457 960.265L488 968.002L534.5 969L574.618 967.003L612 960.265Z" fill="#B25656"/>
<path d="M449.005 757.902L496.262 774.237L492.995 783.688L445.738 767.353L449.005 757.902Z" fill="#544141"/>
<rect x="581.128" y="776.386" width="49" height="10" transform="rotate(-24.4555 581.128 776.386)" fill="#544141"/>
<rect x="438" y="1034" width="33" height="13" fill="#DB6464"/>
<rect x="422" y="1012" width="33" height="13" fill="#DB6464"/>
<rect x="690" y="1162" width="33" height="13" fill="#8CC063"/>
<g filter="url(#filter12_i)">
<path d="M433 839C433 835.686 435.686 833 439 833L638 833C641.314 833 644 835.686 644 839L644 889C644 934.287 607.287 971 562 971L501 971C463.445 971 433 940.555 433 903L433 839Z" stroke="#594949" stroke-width="12"/>
</g>
<line x1="374.522" y1="1065.08" x2="294.522" y2="1037.08" stroke="#594949" stroke-width="15"/>
<line x1="698.817" y1="1129.15" x2="760.082" y2="1070.58" stroke="#594949" stroke-width="15"/>
<defs>
<filter id="filter0_i" x="689.543" y="948.711" width="71.5204" height="69.7174" filterUnits="userSpaceOnUse" color-interpolation-filters="sRGB">
<feFlood flood-opacity="0" result="BackgroundImageFix"/>
<feBlend mode="normal" in="SourceGraphic" in2="BackgroundImageFix" result="shape"/>
<feColorMatrix in="SourceAlpha" type="matrix" values="0 0 0 0 0 0 0 0 0 0 0 0 0 0 0 0 0 0 127 0" result="hardAlpha"/>
<feOffset dx="-35" dy="-8"/>
<feGaussianBlur stdDeviation="2"/>
<feComposite in2="hardAlpha" operator="arithmetic" k2="-1" k3="1"/>
<feColorMatrix type="matrix" values="0 0 0 0 0.986024 0 0 0 0 0.986024 0 0 0 0 0.986024 0 0 0 0.25 0"/>
<feBlend mode="normal" in2="shape" result="effect1_innerShadow"/>
</filter>
<filter id="filter1_i" x="282" y="829" width="71.5204" height="69.7174" filterUnits="userSpaceOnUse" color-interpolation-filters="sRGB">
<feFlood flood-opacity="0" result="BackgroundImageFix"/>
<feBlend mode="normal" in="SourceGraphic" in2="BackgroundImageFix" result="shape"/>
<feColorMatrix in="SourceAlpha" type="matrix" values="0 0 0 0 0 0 0 0 0 0 0 0 0 0 0 0 0 0 127 0" result="hardAlpha"/>
<feOffset dx="-35" dy="-8"/>
<feGaussianBlur stdDeviation="2"/>
<feComposite in2="hardAlpha" operator="arithmetic" k2="-1" k3="1"/>
<feColorMatrix type="matrix" values="0 0 0 0 0.986024 0 0 0 0 0.986024 0 0 0 0 0.986024 0 0 0 0.25 0"/>
<feBlend mode="normal" in2="shape" result="effect1_innerShadow"/>
</filter>
<filter id="filter2_i" x="391.365" y="805.115" width="99.0582" height="96.5197" filterUnits="userSpaceOnUse" color-interpolation-filters="sRGB">
<feFlood flood-opacity="0" result="BackgroundImageFix"/>
<feBlend mode="normal" in="SourceGraphic" in2="BackgroundImageFix" result="shape"/>
<feColorMatrix in="SourceAlpha" type="matrix" values="0 0 0 0 0 0 0 0 0 0 0 0 0 0 0 0 0 0 127 0" result="hardAlpha"/>
<feOffset dx="-35" dy="-8"/>
<feGaussianBlur stdDeviation="2"/>
<feComposite in2="hardAlpha" operator="arithmetic" k2="-1" k3="1"/>
<feColorMatrix type="matrix" values="0 0 0 0 0.986024 0 0 0 0 0.986024 0 0 0 0 0.986024 0 0 0 0.25 0"/>
<feBlend mode="normal" in2="shape" result="effect1_innerShadow"/>
</filter>
<filter id="filter3_i" x="612" y="981.795" width="153" height="153" filterUnits="userSpaceOnUse" color-interpolation-filters="sRGB">
<feFlood flood-opacity="0" result="BackgroundImageFix"/>
<feBlend mode="normal" in="SourceGraphic" in2="BackgroundImageFix" result="shape"/>
<feColorMatrix in="SourceAlpha" type="matrix" values="0 0 0 0 0 0 0 0 0 0 0 0 0 0 0 0 0 0 127 0" result="hardAlpha"/>
<feOffset dx="-35" dy="-8"/>
<feGaussianBlur stdDeviation="2"/>
<feComposite in2="hardAlpha" operator="arithmetic" k2="-1" k3="1"/>
<feColorMatrix type="matrix" values="0 0 0 0 0.986024 0 0 0 0 0.986024 0 0 0 0 0.986024 0 0 0 0.25 0"/>
<feBlend mode="normal" in2="shape" result="effect1_innerShadow"/>
</filter>
<filter id="filter4_i" x="282" y="851.795" width="214" height="214" filterUnits="userSpaceOnUse" color-interpolation-filters="sRGB">
<feFlood flood-opacity="0" result="BackgroundImageFix"/>
<feBlend mode="normal" in="SourceGraphic" in2="BackgroundImageFix" result="shape"/>
<feColorMatrix in="SourceAlpha" type="matrix" values="0 0 0 0 0 0 0 0 0 0 0 0 0 0 0 0 0 0 127 0" result="hardAlpha"/>
<feOffset dx="-35" dy="-8"/>
<feGaussianBlur stdDeviation="2"/>
<feComposite in2="hardAlpha" operator="arithmetic" k2="-1" k3="1"/>
<feColorMatrix type="matrix" values="0 0 0 0 0.986024 0 0 0 0 0.986024 0 0 0 0 0.986024 0 0 0 0.25 0"/>
<feBlend mode="normal" in2="shape" result="effect1_innerShadow"/>
</filter>
<filter id="filter5_i" x="612" y="1056.79" width="153" height="248" filterUnits="userSpaceOnUse" color-interpolation-filters="sRGB">
<feFlood flood-opacity="0" result="BackgroundImageFix"/>
<feBlend mode="normal" in="SourceGraphic" in2="BackgroundImageFix" result="shape"/>
<feColorMatrix in="SourceAlpha" type="matrix" values="0 0 0 0 0 0 0 0 0 0 0 0 0 0 0 0 0 0 127 0" result="hardAlpha"/>
<feOffset dx="-35" dy="-8"/>
<feGaussianBlur stdDeviation="2"/>
<feComposite in2="hardAlpha" operator="arithmetic" k2="-1" k3="1"/>
<feColorMatrix type="matrix" values="0 0 0 0 0.986024 0 0 0 0 0.986024 0 0 0 0 0.986024 0 0 0 0.25 0"/>
<feBlend mode="normal" in2="shape" result="effect1_innerShadow"/>
</filter>
<filter id="filter6_i" x="282" y="956.795" width="214" height="348" filterUnits="userSpaceOnUse" color-interpolation-filters="sRGB">
<feFlood flood-opacity="0" result="BackgroundImageFix"/>
<feBlend mode="normal" in="SourceGraphic" in2="BackgroundImageFix" result="shape"/>
<feColorMatrix in="SourceAlpha" type="matrix" values="0 0 0 0 0 0 0 0 0 0 0 0 0 0 0 0 0 0 127 0" result="hardAlpha"/>
<feOffset dx="-35" dy="-8"/>
<feGaussianBlur stdDeviation="2"/>
<feComposite in2="hardAlpha" operator="arithmetic" k2="-1" k3="1"/>
<feColorMatrix type="matrix" values="0 0 0 0 0.986024 0 0 0 0 0.986024 0 0 0 0 0.986024 0 0 0 0.25 0"/>
<feBlend mode="normal" in2="shape" result="effect1_innerShadow"/>
</filter>
<filter id="filter7_i" x="562.998" y="613" width="135.9" height="132.378" filterUnits="userSpaceOnUse" color-interpolation-filters="sRGB">
<feFlood flood-opacity="0" result="BackgroundImageFix"/>
<feBlend mode="normal" in="SourceGraphic" in2="BackgroundImageFix" result="shape"/>
<feColorMatrix in="SourceAlpha" type="matrix" values="0 0 0 0 0 0 0 0 0 0 0 0 0 0 0 0 0 0 127 0" result="hardAlpha"/>
<feOffset dx="-35" dy="-8"/>
<feGaussianBlur stdDeviation="2"/>
<feComposite in2="hardAlpha" operator="arithmetic" k2="-1" k3="1"/>
<feColorMatrix type="matrix" values="0 0 0 0 0.986024 0 0 0 0 0.986024 0 0 0 0 0.986024 0 0 0 0.25 0"/>
<feBlend mode="normal" in2="shape" result="effect1_innerShadow"/>
</filter>
<filter id="filter8_i" x="374" y="611.999" width="135.9" height="132.378" filterUnits="userSpaceOnUse" color-interpolation-filters="sRGB">
<feFlood flood-opacity="0" result="BackgroundImageFix"/>
<feBlend mode="normal" in="SourceGraphic" in2="BackgroundImageFix" result="shape"/>
<feColorMatrix in="SourceAlpha" type="matrix" values="0 0 0 0 0 0 0 0 0 0 0 0 0 0 0 0 0 0 127 0" result="hardAlpha"/>
<feOffset dx="-35" dy="-8"/>
<feGaussianBlur stdDeviation="2"/>
<feComposite in2="hardAlpha" operator="arithmetic" k2="-1" k3="1"/>
<feColorMatrix type="matrix" values="0 0 0 0 0.986024 0 0 0 0 0.986024 0 0 0 0 0.986024 0 0 0 0.25 0"/>
<feBlend mode="normal" in2="shape" result="effect1_innerShadow"/>
</filter>
<filter id="filter9_i" x="388" y="677.795" width="296" height="295" filterUnits="userSpaceOnUse" color-interpolation-filters="sRGB">
<feFlood flood-opacity="0" result="BackgroundImageFix"/>
<feBlend mode="normal" in="SourceGraphic" in2="BackgroundImageFix" result="shape"/>
<feColorMatrix in="SourceAlpha" type="matrix" values="0 0 0 0 0 0 0 0 0 0 0 0 0 0 0 0 0 0 127 0" result="hardAlpha"/>
<feOffset dx="-35" dy="-8"/>
<feGaussianBlur stdDeviation="2"/>
<feComposite in2="hardAlpha" operator="arithmetic" k2="-1" k3="1"/>
<feColorMatrix type="matrix" values="0 0 0 0 0.986024 0 0 0 0 0.986024 0 0 0 0 0.986024 0 0 0 0.25 0"/>
<feBlend mode="normal" in2="shape" result="effect1_innerShadow"/>
</filter>
<filter id="filter10_i" x="388" y="823.795" width="296" height="481" filterUnits="userSpaceOnUse" color-interpolation-filters="sRGB">
<feFlood flood-opacity="0" result="BackgroundImageFix"/>
<feBlend mode="normal" in="SourceGraphic" in2="BackgroundImageFix" result="shape"/>
<feColorMatrix in="SourceAlpha" type="matrix" values="0 0 0 0 0 0 0 0 0 0 0 0 0 0 0 0 0 0 127 0" result="hardAlpha"/>
<feOffset dx="-35" dy="-8"/>
<feGaussianBlur stdDeviation="2"/>
<feComposite in2="hardAlpha" operator="arithmetic" k2="-1" k3="1"/>
<feColorMatrix type="matrix" values="0 0 0 0 0.986024 0 0 0 0 0.986024 0 0 0 0 0.986024 0 0 0 0.25 0"/>
<feBlend mode="normal" in2="shape" result="effect1_innerShadow"/>
</filter>
<filter id="filter11_i" x="423" y="825" width="227" height="152" filterUnits="userSpaceOnUse" color-interpolation-filters="sRGB">
<feFlood flood-opacity="0" result="BackgroundImageFix"/>
<feBlend mode="normal" in="SourceGraphic" in2="BackgroundImageFix" result="shape"/>
<feColorMatrix in="SourceAlpha" type="matrix" values="0 0 0 0 0 0 0 0 0 0 0 0 0 0 0 0 0 0 127 0" result="hardAlpha"/>
<feOffset dx="-26" dy="-2"/>
<feGaussianBlur stdDeviation="2"/>
<feComposite in2="hardAlpha" operator="arithmetic" k2="-1" k3="1"/>
<feColorMatrix type="matrix" values="0 0 0 0 0 0 0 0 0 0 0 0 0 0 0 0 0 0 0.25 0"/>
<feBlend mode="normal" in2="shape" result="effect1_innerShadow"/>
</filter>
<filter id="filter12_i" x="423" y="825" width="227" height="152" filterUnits="userSpaceOnUse" color-interpolation-filters="sRGB">
<feFlood flood-opacity="0" result="BackgroundImageFix"/>
<feBlend mode="normal" in="SourceGraphic" in2="BackgroundImageFix" result="shape"/>
<feColorMatrix in="SourceAlpha" type="matrix" values="0 0 0 0 0 0 0 0 0 0 0 0 0 0 0 0 0 0 127 0" result="hardAlpha"/>
<feOffset dx="-26" dy="-2"/>
<feGaussianBlur stdDeviation="2"/>
<feComposite in2="hardAlpha" operator="arithmetic" k2="-1" k3="1"/>
<feColorMatrix type="matrix" values="0 0 0 0 0 0 0 0 0 0 0 0 0 0 0 0 0 0 0.25 0"/>
<feBlend mode="normal" in2="shape" result="effect1_innerShadow"/>
</filter>
</defs>
</svg>
