<svg width="1080" height="1920" viewBox="0 0 1080 1920" fill="none" xmlns="http://www.w3.org/2000/svg">
<g clip-path="url(#clip0)">
<rect width="1080" height="1920" fill="#FFB95C"/>
<rect y="1264" width="466" height="62" rx="31" fill="#EAAB58"/>
<rect width="1166" height="83" rx="31" transform="matrix(1 0 0 -1 -31 1324)" fill="#EAAB58"/>
<g filter="url(#filter0_d)">
<mask id="path-3-inside-1" fill="white">
<path fill-rule="evenodd" clip-rule="evenodd" d="M442 708H566V751H613V798V813V860H706V922H613H582H551H459V860H551L551 813H489V770H442V708Z"/>
</mask>
<path fill-rule="evenodd" clip-rule="evenodd" d="M442 708H566V751H613V798V813V860H706V922H613H582H551H459V860H551L551 813H489V770H442V708Z" fill="#EE406D"/>
<path d="M566 708H576V698H566V708ZM442 708V698H432V708H442ZM566 751H556V761H566V751ZM613 751H623V741H613V751ZM613 860H603V870H613V860ZM706 860H716V850H706V860ZM706 922V932H716V922H706ZM459 922H449V932H459V922ZM459 860V850H449V860H459ZM551 860V870H561V860H551ZM551 813H561V803H551V813ZM489 813H479V823H489V813ZM489 770H499V760H489V770ZM442 770H432V780H442V770ZM566 698H442V718H566V698ZM576 751V708H556V751H576ZM566 761H613V741H566V761ZM603 751V798H623V751H603ZM603 798V813H623V798H603ZM623 860V813H603V860H623ZM706 850H613V870H706V850ZM716 922V860H696V922H716ZM613 932H706V912H613V932ZM582 932H613V912H582V932ZM551 932H582V912H551V932ZM459 932H551V912H459V932ZM449 860V922H469V860H449ZM551 850H459V870H551V850ZM541 813L541 860H561L561 813H541ZM551 803H489V823H551V803ZM499 813V770H479V813H499ZM442 780H489V760H442V780ZM432 708V770H452V708H432Z" fill="#3F3232" mask="url(#path-3-inside-1)"/>
</g>
<g filter="url(#filter1_di)">
<path d="M459 911H706L675 1113.5L706 1308H459L483.5 1113.5L459 911Z" fill="#A8DDEF"/>
<path d="M462.949 914.5H701.923L671.54 1112.97L671.458 1113.51L671.544 1114.05L701.898 1304.5H462.969L486.973 1113.94L487.027 1113.51L486.975 1113.08L462.949 914.5Z" stroke="#433535" stroke-width="7"/>
</g>
<circle cx="582.5" cy="1084.5" r="74.5" fill="#E23333"/>
<path d="M568.931 1118.19C570.178 1117.47 570.972 1116.37 571.313 1114.88L572.4 1115.08C572.249 1116.74 571.272 1118.09 569.471 1119.13C568.709 1119.57 567.88 1119.93 566.983 1120.22C565.867 1123.72 563.473 1126.54 559.801 1128.66C557.619 1129.92 555.702 1130.52 554.049 1130.46C552.451 1130.41 551.303 1129.78 550.603 1128.57C549.923 1127.39 549.736 1126.22 550.044 1125.08C550.406 1123.94 551.54 1122.83 553.445 1121.73C555.35 1120.63 558.312 1119.96 562.329 1119.72L558.96 1110.16C559.061 1113.94 557.882 1116.53 555.422 1117.95C550.711 1120.67 547.016 1119.71 544.336 1115.07C542.096 1111.19 541.266 1107.51 541.846 1104.04C542.46 1100.54 544.292 1097.91 547.34 1096.15C549.107 1095.13 550.785 1094.88 552.375 1095.4C552.832 1095.55 553.379 1095.85 554.016 1096.32L553.014 1093.5C555.577 1092.02 557.388 1090.84 558.446 1089.95L559.031 1089.4L566.672 1110.56C567.712 1113.56 567.933 1116.34 567.334 1118.91C567.845 1118.75 568.377 1118.51 568.931 1118.19ZM551.137 1113.29C552.057 1114.89 552.833 1115.87 553.465 1116.24C554.077 1116.58 554.816 1116.5 555.682 1116C556.548 1115.5 557.161 1114.52 557.522 1113.07C557.882 1111.61 558.023 1110.38 557.944 1109.36C557.88 1108.29 557.766 1107.29 557.604 1106.37L555.245 1099.77L555.035 1099.4C553.195 1096.22 550.82 1095.46 547.91 1097.14C546.801 1097.78 546.632 1099.89 547.402 1103.46C548.172 1107.04 549.417 1110.31 551.137 1113.29ZM558.994 1127.74C561.765 1126.14 562.946 1123.86 562.535 1120.91L561.598 1120.97C561.062 1121 560.723 1121.01 560.579 1121C560.489 1121.01 560.204 1121.04 559.723 1121.08C559.242 1121.13 558.895 1121.17 558.682 1121.2C558.489 1121.26 558.161 1121.34 557.7 1121.42C557.274 1121.48 556.919 1121.55 556.637 1121.62C556.375 1121.72 556.067 1121.83 555.716 1121.94C555.136 1122.14 554.344 1122.53 553.339 1123.11C552.335 1123.69 551.661 1124.4 551.317 1125.24C551.008 1126.07 551.124 1126.95 551.664 1127.88C552.204 1128.82 553.136 1129.27 554.461 1129.25C555.785 1129.22 557.296 1128.72 558.994 1127.74ZM564.871 1087.42C564.04 1087.9 563.454 1088.88 563.113 1090.37L561.974 1090.2C561.936 1089.57 562.223 1088.83 562.835 1087.97C563.446 1087.11 564.254 1086.39 565.259 1085.81C568.411 1083.99 570.807 1084.5 572.447 1087.34C573.147 1088.55 574.085 1090.9 575.262 1094.37C576.438 1097.85 577.306 1100.08 577.866 1101.05C578.726 1102.54 579.867 1102.87 581.287 1102.05C582.291 1101.47 582.921 1100.32 583.177 1098.6C583.467 1096.87 583.358 1094.76 582.851 1092.28L578.103 1079.02C580.667 1077.54 582.477 1076.35 583.535 1075.46L584.121 1074.92L591.979 1096.57C592.958 1095.87 593.544 1094.88 593.737 1093.62L594.877 1093.79C594.557 1095.64 593.618 1097.01 592.06 1097.91C590.501 1098.81 589.068 1099.13 587.762 1098.87C586.456 1098.6 585.386 1097.79 584.551 1096.42C584.776 1100.17 583.469 1102.87 580.628 1104.51C578.584 1105.69 576.661 1106.04 574.858 1105.55C573.034 1105.04 571.533 1103.76 570.353 1101.71C569.733 1100.64 568.872 1098.39 567.77 1094.96C566.648 1091.5 565.682 1088.98 564.871 1087.42ZM607.079 1086.12C606.968 1086.97 606.655 1087.87 606.138 1088.81C605.656 1089.74 604.791 1090.56 603.544 1091.28C602.297 1092 601.011 1092.21 599.685 1091.91C598.359 1091.62 597.276 1090.74 596.436 1089.29C596.276 1089.01 596.05 1088.54 595.76 1087.88L588.337 1067.22C586.981 1063.43 586.419 1060.5 586.653 1058.42C586.922 1056.33 587.957 1054.76 589.758 1053.72C591.005 1053 592.297 1052.88 593.634 1053.35C595.005 1053.81 596.241 1054.99 597.341 1056.89C598.441 1058.8 599.266 1061.95 599.816 1066.34C600.401 1070.72 601.164 1073.72 602.104 1075.34L601.169 1075.88C600.109 1074.05 599.326 1071.01 598.821 1066.78C598.296 1062.51 597.443 1059.35 596.263 1057.31C595.543 1056.06 594.629 1055.16 593.52 1054.6C592.446 1054.02 591.493 1053.97 590.662 1054.45C591.147 1055.37 592.881 1059.77 595.863 1067.65C598.86 1075.49 601.567 1082.81 603.984 1089.64C604.953 1089.08 605.564 1088.06 605.816 1086.57C606.067 1085.09 606.076 1083.74 605.842 1082.54L605.514 1080.65L606.689 1080.53C606.865 1081.07 606.998 1081.94 607.088 1083.14C607.192 1084.28 607.189 1085.27 607.079 1086.12ZM623.744 1079.55C622.151 1080.47 620.676 1080.83 619.321 1080.65L622.592 1089.91L616.409 1093.48L605.573 1063.43C604.594 1064.14 604.008 1065.12 603.815 1066.39L602.675 1066.22C602.995 1064.37 603.916 1063 605.441 1062.12C606.999 1061.22 608.432 1060.91 609.738 1061.17C611.024 1061.4 612.092 1062.16 612.941 1063.48C612.965 1060 614.155 1057.58 616.511 1056.22C618.866 1054.86 621.057 1054.49 623.085 1055.13C625.092 1055.72 626.765 1057.18 628.105 1059.5C630.465 1063.59 631.217 1067.45 630.36 1071.09C629.483 1074.69 627.277 1077.51 623.744 1079.55ZM618.485 1078.36C619.833 1079.33 621.322 1079.35 622.95 1078.41C624.613 1077.45 625.25 1075.24 624.863 1071.77C624.51 1068.27 623.223 1064.61 621.003 1060.76C620.083 1059.17 619.28 1058.18 618.594 1057.79C617.942 1057.38 617.183 1057.42 616.317 1057.92C615.451 1058.42 614.85 1059.46 614.515 1061.04C614.215 1062.6 614.126 1063.97 614.251 1065.14C614.355 1066.29 614.447 1066.92 614.527 1067.06L614.475 1067.09L618.485 1078.36Z" fill="white"/>
<path d="M794.394 1068.66C832.844 1070.76 870.888 1081.06 918.894 1100.25C839.492 1133.59 788.207 1139.93 729.288 1117.82C710.035 1110.31 689.631 1099.87 666.997 1086.41C716.911 1072.65 755.909 1066.55 794.394 1068.66ZM728.225 1120.62C788.307 1143.17 840.556 1136.47 920.655 1102.77L867.454 1318.06L705.62 1309.13L665.303 1088.93C687.935 1102.66 708.481 1113.21 728.216 1120.62L728.216 1120.62L728.225 1120.62Z" fill="#EEEDEA" stroke="#3A2828" stroke-width="3"/>
<g filter="url(#filter2_di)">
<mask id="path-10-inside-2" fill="white">
<path fill-rule="evenodd" clip-rule="evenodd" d="M783 1041H753V1092H731V1071H701V1161H731V1182H761V1131H780V1156H810V1131H815V1204H845H875V1071H845H830V1041H800V1066H783V1041Z"/>
</mask>
<path fill-rule="evenodd" clip-rule="evenodd" d="M783 1041H753V1092H731V1071H701V1161H731V1182H761V1131H780V1156H810V1131H815V1204H845H875V1071H845H830V1041H800V1066H783V1041Z" fill="#D7F905"/>
<path d="M753 1041V1036H748V1041H753ZM783 1041H788V1036H783V1041ZM753 1092V1097H758V1092H753ZM731 1092H726V1097H731V1092ZM731 1071H736V1066H731V1071ZM701 1071V1066H696V1071H701ZM701 1161H696V1166H701V1161ZM731 1161H736V1156H731V1161ZM731 1182H726V1187H731V1182ZM761 1182V1187H766V1182H761ZM761 1131V1126H756V1131H761ZM780 1131H785V1126H780V1131ZM780 1156H775V1161H780V1156ZM810 1156V1161H815V1156H810ZM810 1131V1126H805V1131H810ZM815 1131H820V1126H815V1131ZM815 1204H810V1209H815V1204ZM875 1204V1209H880V1204H875ZM875 1071H880V1066H875V1071ZM830 1071H825V1076H830V1071ZM830 1041H835V1036H830V1041ZM800 1041V1036H795V1041H800ZM800 1066V1071H805V1066H800ZM783 1066H778V1071H783V1066ZM753 1046H783V1036H753V1046ZM758 1092V1041H748V1092H758ZM731 1097H753V1087H731V1097ZM726 1071V1092H736V1071H726ZM701 1076H731V1066H701V1076ZM706 1161V1071H696V1161H706ZM731 1156H701V1166H731V1156ZM736 1182V1161H726V1182H736ZM761 1177H731V1187H761V1177ZM756 1131V1182H766V1131H756ZM780 1126H761V1136H780V1126ZM785 1156V1131H775V1156H785ZM810 1151H780V1161H810V1151ZM805 1131V1156H815V1131H805ZM815 1126H810V1136H815V1126ZM820 1204V1131H810V1204H820ZM845 1199H815V1209H845V1199ZM875 1199H845V1209H875V1199ZM870 1071V1204H880V1071H870ZM845 1076H875V1066H845V1076ZM830 1076H845V1066H830V1076ZM825 1041V1071H835V1041H825ZM800 1046H830V1036H800V1046ZM805 1066V1041H795V1066H805ZM783 1071H800V1061H783V1071ZM778 1041V1066H788V1041H778Z" fill="#544C4C" mask="url(#path-10-inside-2)"/>
</g>
<g filter="url(#filter3_di)">
<path d="M665.002 1088.5C690.086 1102.21 698.126 1103.09 719.714 1110.37C783.335 1131.83 837.4 1130.69 922.999 1099L869.5 1320.5L703.501 1308.5L684.501 1192L665.002 1088.5Z" fill="#EEEDEA"/>
<path d="M719.714 1110.37C783.335 1131.83 837.4 1130.69 922.999 1099C869.941 1116.34 787.013 1162.64 665.002 1088.5C690.256 1102.03 698.376 1102.9 719.714 1110.37Z" fill="#EEEDEA"/>
<path d="M813.188 1126.11C822.925 1125.64 832.906 1124.56 843.271 1122.85C835.73 1124.42 827.878 1125.71 819.702 1126.56C785.936 1130.11 746.675 1126.43 701.307 1106.02C703.01 1106.57 704.752 1107.12 706.567 1107.69C710.355 1108.89 714.465 1110.18 719.226 1111.79L719.226 1111.79L719.234 1111.79C751.187 1122.57 780.797 1127.69 813.188 1126.11ZM685.975 1191.72L667.096 1091.51C727.12 1127.24 777.743 1133.99 820.015 1129.55C852.793 1126.11 880.577 1115.91 903.613 1107.46C904.105 1107.28 904.595 1107.1 905.083 1106.92C910.233 1105.19 915.496 1103.35 920.882 1101.38L868.34 1318.91L704.791 1307.09L685.982 1191.76L685.979 1191.74L685.975 1191.72Z" stroke="#3A2828" stroke-width="3"/>
</g>
<path d="M733.346 1155.45C736.431 1154.49 739.644 1154 742.876 1154H840.401C842.128 1154 843.851 1154.19 845.539 1154.56L847.469 1154.98C861.566 1158.06 869.144 1173.44 863 1186.5L852.896 1204.41C852.324 1205.43 851.362 1206.17 850.234 1206.46C845.23 1207.75 846.361 1215.16 851.523 1214.9L869.843 1213.98C874.345 1213.76 877.557 1218.28 875.861 1222.46L867.482 1243.08C866.83 1244.69 865.976 1246.2 864.939 1247.59L861.715 1251.91C849.938 1267.7 831.398 1277 811.701 1277H758.527C745.515 1277 733.169 1271.24 724.804 1261.28L719.99 1255.54C716.444 1251.32 714.5 1245.98 714.5 1240.46V1221.09C714.5 1218.83 716.331 1217 718.589 1217H732.387C736.005 1217 736.44 1211.74 732.871 1211.15C732.303 1211.05 731.775 1210.79 731.352 1210.4L717.074 1197.17C713.452 1193.81 710.987 1189.39 710.035 1184.54C707.739 1172.85 714.611 1161.31 725.982 1157.76L733.346 1155.45Z" fill="#FAEB97"/>
<path d="M758.992 1186.25C760.432 1186.25 761.612 1186.79 762.532 1187.87C763.492 1188.95 763.972 1190.57 763.972 1192.73C763.972 1194.89 763.112 1198.09 761.392 1202.33H763.672L763.552 1203.41H760.912C759.552 1206.81 758.872 1209.39 758.872 1211.15H757.792C757.792 1209.07 758.452 1206.49 759.772 1203.41H756.292C755.092 1209.69 753.552 1218.33 751.672 1229.33H744.412L749.032 1203.41H745.372L745.492 1202.33H749.212L750.172 1197.17C750.812 1193.21 751.792 1190.41 753.112 1188.77C754.472 1187.09 756.432 1186.25 758.992 1186.25ZM762.832 1192.61C762.832 1191.17 762.492 1189.93 761.812 1188.89C761.172 1187.85 760.372 1187.33 759.412 1187.33C759.012 1188.89 758.032 1193.89 756.472 1202.33H760.192C761.952 1198.33 762.832 1195.09 762.832 1192.61ZM763.474 1203.95C764.674 1202.51 766.174 1201.79 767.974 1201.79C769.814 1201.79 771.234 1202.25 772.234 1203.17C773.234 1204.09 773.734 1205.39 773.734 1207.07V1207.43C775.534 1203.67 777.874 1201.79 780.754 1201.79C783.834 1201.79 785.374 1203.39 785.374 1206.59C785.374 1207.91 784.934 1209.31 784.054 1210.79C783.174 1212.27 782.294 1213.69 781.414 1215.05C780.534 1216.37 780.094 1217.55 780.094 1218.59H778.654C778.654 1217.11 779.514 1215.11 781.234 1212.59C782.954 1210.07 783.814 1208.13 783.814 1206.77C783.814 1205.37 783.534 1204.43 782.974 1203.95C782.454 1203.43 781.654 1203.17 780.574 1203.17C779.534 1203.17 778.494 1203.63 777.454 1204.55C776.454 1205.47 775.614 1206.63 774.934 1208.03C773.854 1210.11 773.134 1211.81 772.774 1213.13V1213.19L770.614 1225.13H763.414L767.374 1202.99C766.174 1203.11 765.174 1203.67 764.374 1204.67L763.474 1203.95ZM797.71 1223.51C796.51 1224.95 795.01 1225.67 793.21 1225.67C791.41 1225.67 789.99 1225.21 788.95 1224.29C787.95 1223.37 787.45 1222.17 787.45 1220.69C787.45 1220.17 787.77 1217.99 788.41 1214.15L790.39 1203.41H787.87L787.99 1202.33H790.57C793.53 1202.33 795.71 1202.21 797.11 1201.97L797.95 1201.79L793.81 1224.47C795.01 1224.35 796.01 1223.79 796.81 1222.79L797.71 1223.51ZM792.43 1196.03C791.59 1195.19 791.17 1194.17 791.17 1192.97C791.17 1191.77 791.59 1190.75 792.43 1189.91C793.27 1189.03 794.29 1188.59 795.49 1188.59C796.69 1188.59 797.71 1189.03 798.55 1189.91C799.43 1190.75 799.87 1191.77 799.87 1192.97C799.87 1194.17 799.43 1195.19 798.55 1196.03C797.71 1196.87 796.69 1197.29 795.49 1197.29C794.29 1197.29 793.27 1196.87 792.43 1196.03ZM814.102 1201.79C819.182 1201.79 821.722 1203.81 821.722 1207.85C821.722 1210.37 820.522 1212.29 818.122 1213.61C815.762 1214.89 812.382 1215.55 807.982 1215.59C807.902 1217.03 807.862 1218.17 807.862 1219.01C807.862 1220.81 808.262 1222.15 809.062 1223.03C809.902 1223.87 810.942 1224.29 812.182 1224.29C813.422 1224.29 814.542 1224.05 815.542 1223.57C816.582 1223.09 817.402 1222.53 818.002 1221.89C818.602 1221.21 819.122 1220.51 819.562 1219.79C820.362 1218.47 820.762 1217.63 820.762 1217.27L821.842 1217.75C821.722 1218.39 821.362 1219.25 820.762 1220.33C820.162 1221.37 819.502 1222.23 818.782 1222.91C818.062 1223.59 817.002 1224.23 815.602 1224.83C814.202 1225.39 812.642 1225.67 810.922 1225.67C807.682 1225.67 805.222 1224.91 803.542 1223.39C801.902 1221.83 801.082 1219.71 801.082 1217.03C801.082 1212.27 802.262 1208.55 804.622 1205.87C806.982 1203.15 810.142 1201.79 814.102 1201.79ZM820.222 1207.85C820.222 1206.53 819.822 1205.45 819.022 1204.61C818.262 1203.73 817.102 1203.29 815.542 1203.29C814.022 1203.29 812.522 1204.21 811.042 1206.05C809.602 1207.89 808.642 1210.61 808.162 1214.21C816.202 1214.17 820.222 1212.05 820.222 1207.85ZM830.629 1224.11C834.589 1224.11 836.569 1221.19 836.569 1215.35C836.569 1213.91 836.349 1212.21 835.909 1210.25C835.509 1208.29 835.269 1207.07 835.189 1206.59C832.749 1209.11 830.009 1210.63 826.969 1211.15V1209.71C829.849 1209.07 832.549 1207.43 835.069 1204.79V1204.55C835.069 1203.59 835.209 1202.65 835.489 1201.73C835.769 1200.81 836.049 1200.13 836.329 1199.69L836.749 1199.03H838.189C838.189 1200.79 838.469 1202.41 839.029 1203.89C839.589 1205.33 840.209 1206.51 840.889 1207.43C841.569 1208.31 842.189 1209.49 842.749 1210.97C843.309 1212.41 843.589 1214.01 843.589 1215.77C843.589 1218.61 842.509 1220.97 840.349 1222.85C838.229 1224.73 835.669 1225.67 832.669 1225.67C829.669 1225.67 827.389 1224.99 825.829 1223.63C824.309 1222.27 823.549 1220.71 823.549 1218.95C823.549 1217.15 823.989 1215.87 824.869 1215.11C825.749 1214.31 826.789 1213.91 827.989 1213.91C829.189 1213.91 830.169 1214.31 830.929 1215.11C831.729 1215.87 832.129 1216.87 832.129 1218.11C832.129 1219.31 831.749 1220.33 830.989 1221.17C830.229 1222.01 829.249 1222.43 828.049 1222.43C827.529 1222.43 826.989 1222.35 826.429 1222.19C827.309 1223.47 828.709 1224.11 830.629 1224.11Z" fill="#220C11"/>
<rect x="176.5" y="1310" width="357" height="50" rx="25" fill="#F39F31"/>
<rect x="181" y="1314.5" width="348" height="41" rx="20.5" fill="#F39F31" stroke="#332626" stroke-width="9"/>
<path d="M185.51 1301C182.459 1301 179.689 1302.78 178.427 1305.56C175.26 1312.53 183 1319.4 189.544 1315.43L191.195 1314.43C195.206 1312 200.432 1313.33 202.785 1317.39L208.582 1327.39C213.135 1335.24 224.363 1335.55 229.337 1327.96C233.558 1321.52 242.621 1320.55 248.105 1325.96L261.35 1339.02C268.244 1345.82 279.417 1345.5 285.906 1338.31L295.721 1327.44C301.583 1320.95 311.689 1320.69 317.874 1326.87C323.57 1332.57 332.709 1332.87 338.763 1327.55L342.91 1323.92C348.592 1318.93 356.885 1318.29 363.26 1322.36L384.868 1336.13C392.299 1340.87 402.118 1339.14 407.486 1332.15L413.899 1323.8C419.713 1316.23 430.618 1314.93 438.049 1320.92L448.752 1329.55C453.645 1333.49 460.894 1332.21 464.146 1326.84C467.632 1321.07 475.602 1320.1 480.367 1324.87L489.025 1333.52C493.565 1338.06 501.03 1337.7 505.103 1332.73L509.108 1327.85C511.381 1325.08 515.619 1325.08 517.892 1327.85C521.431 1332.17 528.418 1329.33 527.943 1323.77L526.776 1310.09C526.337 1304.95 522.034 1301 516.872 1301H185.51Z" fill="#448803" stroke="#443333" stroke-width="6"/>
<path d="M255.094 1293.93L262.021 1289.5C265.637 1287.19 269.68 1285.63 273.91 1284.91L349.5 1272L397.199 1269.55C403.771 1269.22 409.927 1272.77 412.922 1278.63C416.698 1286.02 414.476 1295.06 407.706 1299.85L372.003 1325.14C363.813 1330.95 354.237 1334.48 344.242 1335.39L271.572 1342.03C264.792 1342.65 258.038 1340.61 252.744 1336.33C238.851 1325.1 240.045 1303.56 255.094 1293.93Z" fill="#B90A0A" stroke="#B90A0A" stroke-width="6"/>
<path d="M468.602 1271.04L475.206 1253.88C476.43 1250.7 478.582 1247.96 481.382 1246.02L495.36 1236.32C496.62 1235.45 498.043 1234.84 499.543 1234.53C506.077 1233.17 512.382 1237.67 513.215 1244.29L514.004 1250.55C514.33 1253.15 514.053 1255.79 513.195 1258.26L502.341 1289.49C500.688 1294.25 496.997 1298.01 492.276 1299.77C483.169 1303.15 473.096 1298.16 470.266 1288.87L468.205 1282.1C467.1 1278.47 467.24 1274.58 468.602 1271.04Z" fill="#B90A0A" stroke="#B90A0A" stroke-width="6"/>
<rect x="181" y="1264.5" width="348" height="41" rx="20.5" fill="#6E2B1A" stroke="#332626" stroke-width="9"/>
<path d="M497 1243L229.674 1292.67C219.001 1294.66 208.265 1289.54 203.086 1280C194.025 1263.31 206.108 1243 225.099 1243H497Z" fill="#F7C631"/>
<path d="M225 1249L438.125 1309.21C453.657 1313.59 469.932 1305.2 475.359 1290C482.494 1270.02 467.682 1249 446.466 1249H225Z" fill="#F7C631"/>
<rect x="178" y="1214.5" width="348" height="41" rx="20.5" fill="#6E2B1A" stroke="#332626" stroke-width="9"/>
<path d="M193.454 1207.6C179.844 1207.32 170.641 1221.39 176.345 1233.75C179.712 1241.04 187.416 1245.32 195.387 1244.31L223.535 1240.76C230.047 1239.94 236.659 1240.96 242.615 1243.72L250.914 1247.56C261.027 1252.24 272.763 1251.82 282.519 1246.44L298.033 1237.88C306.026 1233.47 315.426 1232.36 324.228 1234.78L346.511 1240.91C358.029 1244.08 370.191 1240.91 379.864 1233.89C386.712 1228.93 393.274 1225.22 395.5 1227C398.04 1229.03 411.068 1234.13 423.952 1238.86C436.225 1243.37 449.853 1240.23 459.75 1231.69C468.063 1224.51 475.785 1218.59 476.5 1220.5C477.112 1222.13 480.96 1226.87 485.468 1232.07C490.981 1238.43 501.217 1236.2 503.841 1228.2C506.158 1221.14 500.989 1213.85 493.56 1213.7L193.454 1207.6Z" fill="#448803" stroke="black"/>
<path d="M370.102 1178.04L376.706 1160.88C377.93 1157.7 380.082 1154.96 382.882 1153.02L396.86 1143.32C398.12 1142.45 399.543 1141.84 401.043 1141.53C407.577 1140.17 413.882 1144.67 414.715 1151.29L415.504 1157.55C415.83 1160.15 415.553 1162.79 414.695 1165.26L403.841 1196.49C402.188 1201.25 398.497 1205.01 393.776 1206.77C384.669 1210.15 374.596 1205.16 371.766 1195.87L369.705 1189.1C368.6 1185.47 368.74 1181.58 370.102 1178.04Z" fill="#B90A0A" stroke="#B90A0A" stroke-width="6"/>
<mask id="path-27-inside-3" fill="white">
<path d="M533.5 1219C533.5 1198.12 528.805 1177.44 519.684 1158.15C510.563 1138.86 497.194 1121.33 480.34 1106.57C463.486 1091.81 443.478 1080.09 421.457 1072.1C399.436 1064.11 375.835 1060 352 1060C328.165 1060 304.564 1064.11 282.543 1072.1C260.522 1080.09 240.514 1091.81 223.66 1106.57C206.806 1121.33 193.437 1138.86 184.316 1158.15C175.195 1177.44 170.5 1198.12 170.5 1219L352 1219H533.5Z"/>
</mask>
<g filter="url(#filter4_i)">
<path d="M533.5 1219C533.5 1198.12 528.805 1177.44 519.684 1158.15C510.563 1138.86 497.194 1121.33 480.34 1106.57C463.486 1091.81 443.478 1080.09 421.457 1072.1C399.436 1064.11 375.835 1060 352 1060C328.165 1060 304.564 1064.11 282.543 1072.1C260.522 1080.09 240.514 1091.81 223.66 1106.57C206.806 1121.33 193.437 1138.86 184.316 1158.15C175.195 1177.44 170.5 1198.12 170.5 1219L352 1219H533.5Z" fill="#F39F31"/>
</g>
<path d="M533.5 1219C533.5 1198.12 528.805 1177.44 519.684 1158.15C510.563 1138.86 497.194 1121.33 480.34 1106.57C463.486 1091.81 443.478 1080.09 421.457 1072.1C399.436 1064.11 375.835 1060 352 1060C328.165 1060 304.564 1064.11 282.543 1072.1C260.522 1080.09 240.514 1091.81 223.66 1106.57C206.806 1121.33 193.437 1138.86 184.316 1158.15C175.195 1177.44 170.5 1198.12 170.5 1219L352 1219H533.5Z" stroke="#332626" stroke-width="18" mask="url(#path-27-inside-3)"/>
<g filter="url(#filter5_i)">
<ellipse cx="321.5" cy="1176" rx="5" ry="9" fill="#FFB95C"/>
</g>
<g filter="url(#filter6_i)">
<ellipse cx="356.5" cy="1093" rx="5" ry="9" fill="#FFB95C"/>
</g>
<g filter="url(#filter7_i)">
<ellipse cx="274.33" cy="1127.29" rx="5" ry="9" transform="rotate(-30 274.33 1127.29)" fill="#FFB95C"/>
</g>
<g filter="url(#filter8_i)">
<ellipse cx="400.33" cy="1117.29" rx="5" ry="9" transform="rotate(-30 400.33 1117.29)" fill="#FFB95C"/>
</g>
<g filter="url(#filter9_i)">
<ellipse cx="331.219" cy="1108.05" rx="5" ry="9" transform="rotate(41.6973 331.219 1108.05)" fill="#FFB95C"/>
</g>
<g filter="url(#filter10_i)">
<path d="M400.489 1154.1C399.202 1158.9 395.997 1162.21 393.33 1161.5C390.662 1160.79 389.543 1156.31 390.83 1151.51C392.116 1146.71 395.321 1143.4 397.989 1144.11C400.656 1144.83 401.775 1149.3 400.489 1154.1Z" fill="#FFB95C"/>
</g>
</g>
<defs>
<filter id="filter0_d" x="442" y="708" width="284" height="233" filterUnits="userSpaceOnUse" color-interpolation-filters="sRGB">
<feFlood flood-opacity="0" result="BackgroundImageFix"/>
<feColorMatrix in="SourceAlpha" type="matrix" values="0 0 0 0 0 0 0 0 0 0 0 0 0 0 0 0 0 0 127 0" result="hardAlpha"/>
<feOffset dx="16" dy="15"/>
<feGaussianBlur stdDeviation="2"/>
<feComposite in2="hardAlpha" operator="out"/>
<feColorMatrix type="matrix" values="0 0 0 0 0 0 0 0 0 0 0 0 0 0 0 0 0 0 0.25 0"/>
<feBlend mode="normal" in2="BackgroundImageFix" result="effect1_dropShadow"/>
<feBlend mode="normal" in="SourceGraphic" in2="effect1_dropShadow" result="shape"/>
</filter>
<filter id="filter1_di" x="459" y="909" width="267" height="405" filterUnits="userSpaceOnUse" color-interpolation-filters="sRGB">
<feFlood flood-opacity="0" result="BackgroundImageFix"/>
<feColorMatrix in="SourceAlpha" type="matrix" values="0 0 0 0 0 0 0 0 0 0 0 0 0 0 0 0 0 0 127 0" result="hardAlpha"/>
<feOffset dx="16" dy="2"/>
<feGaussianBlur stdDeviation="2"/>
<feComposite in2="hardAlpha" operator="out"/>
<feColorMatrix type="matrix" values="0 0 0 0 0 0 0 0 0 0 0 0 0 0 0 0 0 0 0.25 0"/>
<feBlend mode="normal" in2="BackgroundImageFix" result="effect1_dropShadow"/>
<feBlend mode="normal" in="SourceGraphic" in2="effect1_dropShadow" result="shape"/>
<feColorMatrix in="SourceAlpha" type="matrix" values="0 0 0 0 0 0 0 0 0 0 0 0 0 0 0 0 0 0 127 0" result="hardAlpha"/>
<feOffset dx="42" dy="15"/>
<feGaussianBlur stdDeviation="2"/>
<feComposite in2="hardAlpha" operator="arithmetic" k2="-1" k3="1"/>
<feColorMatrix type="matrix" values="0 0 0 0 1 0 0 0 0 1 0 0 0 0 1 0 0 0 0.25 0"/>
<feBlend mode="normal" in2="shape" result="effect2_innerShadow"/>
</filter>
<filter id="filter2_di" x="697" y="1034" width="197" height="174" filterUnits="userSpaceOnUse" color-interpolation-filters="sRGB">
<feFlood flood-opacity="0" result="BackgroundImageFix"/>
<feColorMatrix in="SourceAlpha" type="matrix" values="0 0 0 0 0 0 0 0 0 0 0 0 0 0 0 0 0 0 127 0" result="hardAlpha"/>
<feOffset dx="15" dy="-3"/>
<feGaussianBlur stdDeviation="2"/>
<feComposite in2="hardAlpha" operator="out"/>
<feColorMatrix type="matrix" values="0 0 0 0 0 0 0 0 0 0 0 0 0 0 0 0 0 0 0.25 0"/>
<feBlend mode="normal" in2="BackgroundImageFix" result="effect1_dropShadow"/>
<feBlend mode="normal" in="SourceGraphic" in2="effect1_dropShadow" result="shape"/>
<feColorMatrix in="SourceAlpha" type="matrix" values="0 0 0 0 0 0 0 0 0 0 0 0 0 0 0 0 0 0 127 0" result="hardAlpha"/>
<feOffset dx="-13" dy="4"/>
<feGaussianBlur stdDeviation="2"/>
<feComposite in2="hardAlpha" operator="arithmetic" k2="-1" k3="1"/>
<feColorMatrix type="matrix" values="0 0 0 0 1 0 0 0 0 1 0 0 0 0 1 0 0 0 0.25 0"/>
<feBlend mode="normal" in2="shape" result="effect2_innerShadow"/>
</filter>
<filter id="filter3_di" x="661.002" y="1088.5" width="267.997" height="242" filterUnits="userSpaceOnUse" color-interpolation-filters="sRGB">
<feFlood flood-opacity="0" result="BackgroundImageFix"/>
<feColorMatrix in="SourceAlpha" type="matrix" values="0 0 0 0 0 0 0 0 0 0 0 0 0 0 0 0 0 0 127 0" result="hardAlpha"/>
<feOffset dx="2" dy="6"/>
<feGaussianBlur stdDeviation="2"/>
<feComposite in2="hardAlpha" operator="out"/>
<feColorMatrix type="matrix" values="0 0 0 0 0 0 0 0 0 0 0 0 0 0 0 0 0 0 0.25 0"/>
<feBlend mode="normal" in2="BackgroundImageFix" result="effect1_dropShadow"/>
<feBlend mode="normal" in="SourceGraphic" in2="effect1_dropShadow" result="shape"/>
<feColorMatrix in="SourceAlpha" type="matrix" values="0 0 0 0 0 0 0 0 0 0 0 0 0 0 0 0 0 0 127 0" result="hardAlpha"/>
<feOffset dx="-22" dy="4"/>
<feGaussianBlur stdDeviation="2"/>
<feComposite in2="hardAlpha" operator="arithmetic" k2="-1" k3="1"/>
<feColorMatrix type="matrix" values="0 0 0 0 0 0 0 0 0 0 0 0 0 0 0 0 0 0 0.25 0"/>
<feBlend mode="normal" in2="shape" result="effect2_innerShadow"/>
</filter>
<filter id="filter4_i" x="170.5" y="1060" width="367" height="163" filterUnits="userSpaceOnUse" color-interpolation-filters="sRGB">
<feFlood flood-opacity="0" result="BackgroundImageFix"/>
<feBlend mode="normal" in="SourceGraphic" in2="BackgroundImageFix" result="shape"/>
<feColorMatrix in="SourceAlpha" type="matrix" values="0 0 0 0 0 0 0 0 0 0 0 0 0 0 0 0 0 0 127 0" result="hardAlpha"/>
<feOffset dx="35" dy="4"/>
<feGaussianBlur stdDeviation="2"/>
<feComposite in2="hardAlpha" operator="arithmetic" k2="-1" k3="1"/>
<feColorMatrix type="matrix" values="0 0 0 0 0.998524 0 0 0 0 0.998524 0 0 0 0 0.998524 0 0 0 0.25 0"/>
<feBlend mode="normal" in2="shape" result="effect1_innerShadow"/>
</filter>
<filter id="filter5_i" x="316.5" y="1167" width="13" height="22" filterUnits="userSpaceOnUse" color-interpolation-filters="sRGB">
<feFlood flood-opacity="0" result="BackgroundImageFix"/>
<feBlend mode="normal" in="SourceGraphic" in2="BackgroundImageFix" result="shape"/>
<feColorMatrix in="SourceAlpha" type="matrix" values="0 0 0 0 0 0 0 0 0 0 0 0 0 0 0 0 0 0 127 0" result="hardAlpha"/>
<feOffset dx="3" dy="4"/>
<feGaussianBlur stdDeviation="2"/>
<feComposite in2="hardAlpha" operator="arithmetic" k2="-1" k3="1"/>
<feColorMatrix type="matrix" values="0 0 0 0 1 0 0 0 0 1 0 0 0 0 1 0 0 0 0.25 0"/>
<feBlend mode="normal" in2="shape" result="effect1_innerShadow"/>
</filter>
<filter id="filter6_i" x="351.5" y="1084" width="13" height="22" filterUnits="userSpaceOnUse" color-interpolation-filters="sRGB">
<feFlood flood-opacity="0" result="BackgroundImageFix"/>
<feBlend mode="normal" in="SourceGraphic" in2="BackgroundImageFix" result="shape"/>
<feColorMatrix in="SourceAlpha" type="matrix" values="0 0 0 0 0 0 0 0 0 0 0 0 0 0 0 0 0 0 127 0" result="hardAlpha"/>
<feOffset dx="3" dy="4"/>
<feGaussianBlur stdDeviation="2"/>
<feComposite in2="hardAlpha" operator="arithmetic" k2="-1" k3="1"/>
<feColorMatrix type="matrix" values="0 0 0 0 1 0 0 0 0 1 0 0 0 0 1 0 0 0 0.25 0"/>
<feBlend mode="normal" in2="shape" result="effect1_innerShadow"/>
</filter>
<filter id="filter7_i" x="268.085" y="1119.11" width="15.49" height="20.3751" filterUnits="userSpaceOnUse" color-interpolation-filters="sRGB">
<feFlood flood-opacity="0" result="BackgroundImageFix"/>
<feBlend mode="normal" in="SourceGraphic" in2="BackgroundImageFix" result="shape"/>
<feColorMatrix in="SourceAlpha" type="matrix" values="0 0 0 0 0 0 0 0 0 0 0 0 0 0 0 0 0 0 127 0" result="hardAlpha"/>
<feOffset dx="3" dy="4"/>
<feGaussianBlur stdDeviation="2"/>
<feComposite in2="hardAlpha" operator="arithmetic" k2="-1" k3="1"/>
<feColorMatrix type="matrix" values="0 0 0 0 1 0 0 0 0 1 0 0 0 0 1 0 0 0 0.25 0"/>
<feBlend mode="normal" in2="shape" result="effect1_innerShadow"/>
</filter>
<filter id="filter8_i" x="394.085" y="1109.11" width="15.49" height="20.3751" filterUnits="userSpaceOnUse" color-interpolation-filters="sRGB">
<feFlood flood-opacity="0" result="BackgroundImageFix"/>
<feBlend mode="normal" in="SourceGraphic" in2="BackgroundImageFix" result="shape"/>
<feColorMatrix in="SourceAlpha" type="matrix" values="0 0 0 0 0 0 0 0 0 0 0 0 0 0 0 0 0 0 127 0" result="hardAlpha"/>
<feOffset dx="3" dy="4"/>
<feGaussianBlur stdDeviation="2"/>
<feComposite in2="hardAlpha" operator="arithmetic" k2="-1" k3="1"/>
<feColorMatrix type="matrix" values="0 0 0 0 1 0 0 0 0 1 0 0 0 0 1 0 0 0 0.25 0"/>
<feBlend mode="normal" in2="shape" result="effect1_innerShadow"/>
</filter>
<filter id="filter9_i" x="324.163" y="1100.55" width="17.1128" height="18.9994" filterUnits="userSpaceOnUse" color-interpolation-filters="sRGB">
<feFlood flood-opacity="0" result="BackgroundImageFix"/>
<feBlend mode="normal" in="SourceGraphic" in2="BackgroundImageFix" result="shape"/>
<feColorMatrix in="SourceAlpha" type="matrix" values="0 0 0 0 0 0 0 0 0 0 0 0 0 0 0 0 0 0 127 0" result="hardAlpha"/>
<feOffset dx="3" dy="4"/>
<feGaussianBlur stdDeviation="2"/>
<feComposite in2="hardAlpha" operator="arithmetic" k2="-1" k3="1"/>
<feColorMatrix type="matrix" values="0 0 0 0 1 0 0 0 0 1 0 0 0 0 1 0 0 0 0.25 0"/>
<feBlend mode="normal" in2="shape" result="effect1_innerShadow"/>
</filter>
<filter id="filter10_i" x="390.296" y="1144.02" width="13.7265" height="21.5806" filterUnits="userSpaceOnUse" color-interpolation-filters="sRGB">
<feFlood flood-opacity="0" result="BackgroundImageFix"/>
<feBlend mode="normal" in="SourceGraphic" in2="BackgroundImageFix" result="shape"/>
<feColorMatrix in="SourceAlpha" type="matrix" values="0 0 0 0 0 0 0 0 0 0 0 0 0 0 0 0 0 0 127 0" result="hardAlpha"/>
<feOffset dx="3" dy="4"/>
<feGaussianBlur stdDeviation="2"/>
<feComposite in2="hardAlpha" operator="arithmetic" k2="-1" k3="1"/>
<feColorMatrix type="matrix" values="0 0 0 0 1 0 0 0 0 1 0 0 0 0 1 0 0 0 0.25 0"/>
<feBlend mode="normal" in2="shape" result="effect1_innerShadow"/>
</filter>
<clipPath id="clip0">
<rect width="1080" height="1920" fill="white"/>
</clipPath>
</defs>
</svg>
