<svg width="1080" height="1920" viewBox="0 0 1080 1920" fill="none" xmlns="http://www.w3.org/2000/svg">
<rect width="1080" height="1920" fill="#00C2E8"/>
<g filter="url(#filter0_di)">
<rect x="389" y="537" width="303" height="954.564" rx="88" fill="#787296"/>
<rect x="396" y="544" width="289" height="940.564" rx="81" stroke="#4A5081" stroke-width="14"/>
</g>
<circle cx="539.362" cy="760.263" r="78.218" fill="#C2CFE0"/>
<path d="M598.702 704.112L466.772 807.476L462.733 800.254L460.041 793.032L581.201 691.925L598.702 704.112Z" fill="#E3E7EE"/>
<path d="M617.532 723.39L483.973 816.035L479.885 809.562L477.159 803.089L599.815 712.467L617.532 723.39Z" fill="#E3E7EE"/>
<circle cx="539.74" cy="667.237" r="3.41729" fill="#C4C4C4"/>
<circle cx="539.74" cy="853.29" r="3.41729" fill="#C4C4C4"/>
<circle cx="633.146" cy="760.642" r="3.41729" fill="#C4C4C4"/>
<circle cx="445.577" cy="760.642" r="3.41729" fill="#C4C4C4"/>
<circle cx="539.741" cy="760.643" r="88.1955" stroke="#2F3D48" stroke-width="37"/>
<circle cx="461.14" cy="970.616" r="43.2857" fill="#2C3844"/>
<path d="M471.01 958.141L458.67 970.617L471.01 983.093L468.542 988.083L451.265 970.617L468.542 953.151L471.01 958.141Z" fill="white"/>
<circle cx="617.576" cy="970.617" r="43.2857" fill="#2C3844"/>
<path d="M597.528 960.592C597.528 959.263 598.056 957.988 598.996 957.048C599.936 956.108 601.21 955.58 602.54 955.58H632.612C633.941 955.58 635.216 956.108 636.156 957.048C637.096 957.988 637.624 959.263 637.624 960.592V978.134C637.624 979.463 637.096 980.738 636.156 981.678C635.216 982.618 633.941 983.146 632.612 983.146H602.54C601.21 983.146 599.936 982.618 598.996 981.678C598.056 980.738 597.528 979.463 597.528 978.134V960.592ZM602.54 958.086C601.875 958.086 601.238 958.35 600.768 958.82C600.298 959.29 600.034 959.927 600.034 960.592V978.134C600.034 978.799 600.298 979.436 600.768 979.906C601.238 980.376 601.875 980.64 602.54 980.64H632.612C633.276 980.64 633.914 980.376 634.384 979.906C634.854 979.436 635.118 978.799 635.118 978.134V960.592C635.118 959.927 634.854 959.29 634.384 958.82C633.914 958.35 633.276 958.086 632.612 958.086H602.54Z" fill="white"/>
<path d="M605.046 986.905C605.046 986.573 605.178 986.254 605.413 986.019C605.648 985.784 605.966 985.652 606.299 985.652H628.853C629.185 985.652 629.504 985.784 629.739 986.019C629.974 986.254 630.106 986.573 630.106 986.905C630.106 987.237 629.974 987.556 629.739 987.791C629.504 988.026 629.185 988.158 628.853 988.158H606.299C605.966 988.158 605.648 988.026 605.413 987.791C605.178 987.556 605.046 987.237 605.046 986.905Z" fill="white"/>
<circle cx="461.138" cy="1084.53" r="43.2857" fill="#2C3844"/>
<path d="M472.007 1084.04L460.924 1075.33C460.512 1075.01 459.906 1075.3 459.906 1075.82V1093.23C459.906 1093.75 460.512 1094.05 460.924 1093.72L472.007 1085.02C472.082 1084.96 472.142 1084.88 472.183 1084.8C472.224 1084.71 472.246 1084.62 472.246 1084.53C472.246 1084.43 472.224 1084.34 472.183 1084.25C472.142 1084.17 472.082 1084.09 472.007 1084.04ZM459.667 1084.04L448.584 1075.33C448.171 1075.01 447.566 1075.3 447.566 1075.82V1093.23C447.566 1093.75 448.171 1094.04 448.584 1093.72L459.667 1085.01C459.825 1084.89 459.906 1084.7 459.906 1084.52C459.906 1084.35 459.825 1084.16 459.667 1084.04ZM474.468 1074.35H472.493C472.358 1074.35 472.246 1074.45 472.246 1074.58V1094.48C472.246 1094.6 472.358 1094.71 472.493 1094.71H474.468C474.603 1094.71 474.714 1094.6 474.714 1094.48V1074.58C474.714 1074.45 474.603 1074.35 474.468 1074.35Z" fill="white"/>
<circle cx="461.138" cy="1198.43" r="43.2857" fill="#2C3844"/>
<path fill-rule="evenodd" clip-rule="evenodd" d="M461.14 1184.86C461.14 1184.62 461.071 1184.39 460.94 1184.19C460.81 1183.99 460.624 1183.83 460.405 1183.73C460.186 1183.63 459.944 1183.6 459.708 1183.64C459.472 1183.68 459.252 1183.79 459.075 1183.95L450.379 1191.85H445.92C445.156 1191.85 444.424 1192.16 443.884 1192.7C443.344 1193.24 443.041 1193.97 443.041 1194.73V1202.14C443.041 1203.73 444.331 1205.02 445.92 1205.02H450.379L459.075 1212.92C459.252 1213.08 459.472 1213.19 459.708 1213.23C459.944 1213.27 460.186 1213.24 460.405 1213.14C460.624 1213.04 460.81 1212.88 460.94 1212.68C461.071 1212.48 461.14 1212.25 461.14 1212.01V1184.86ZM451.687 1194L458.672 1187.65V1209.22L451.687 1202.87C451.46 1202.66 451.164 1202.55 450.856 1202.55H445.92C445.811 1202.55 445.706 1202.51 445.629 1202.43C445.552 1202.35 445.509 1202.25 445.509 1202.14V1194.73C445.509 1194.62 445.552 1194.52 445.629 1194.44C445.706 1194.37 445.811 1194.32 445.92 1194.32H450.856C451.164 1194.32 451.46 1194.21 451.687 1194Z" fill="white"/>
<path d="M468.181 1192.21C468.068 1192.09 467.932 1192 467.78 1191.93C467.629 1191.86 467.465 1191.82 467.3 1191.82C467.134 1191.82 466.969 1191.85 466.816 1191.91C466.662 1191.97 466.523 1192.07 466.405 1192.18C466.288 1192.3 466.196 1192.44 466.134 1192.59C466.072 1192.75 466.041 1192.91 466.044 1193.08C466.047 1193.24 466.083 1193.41 466.151 1193.56C466.218 1193.71 466.315 1193.85 466.437 1193.96L470.912 1198.43L466.437 1202.91C466.315 1203.02 466.218 1203.16 466.151 1203.31C466.083 1203.46 466.047 1203.62 466.044 1203.79C466.041 1203.96 466.072 1204.12 466.134 1204.27C466.196 1204.43 466.288 1204.57 466.405 1204.68C466.523 1204.8 466.662 1204.89 466.816 1204.96C466.969 1205.02 467.134 1205.05 467.3 1205.05C467.465 1205.04 467.629 1205.01 467.78 1204.94C467.932 1204.87 468.068 1204.77 468.181 1204.65L472.656 1200.18L477.132 1204.65C477.245 1204.77 477.381 1204.87 477.532 1204.94C477.684 1205.01 477.847 1205.04 478.013 1205.05C478.178 1205.05 478.343 1205.02 478.497 1204.96C478.65 1204.89 478.79 1204.8 478.907 1204.68C479.024 1204.57 479.117 1204.43 479.179 1204.27C479.241 1204.12 479.271 1203.96 479.268 1203.79C479.265 1203.62 479.229 1203.46 479.162 1203.31C479.094 1203.16 478.997 1203.02 478.876 1202.91L474.4 1198.43L478.876 1193.96C479.094 1193.72 479.212 1193.42 479.207 1193.1C479.201 1192.78 479.072 1192.47 478.845 1192.24C478.619 1192.02 478.314 1191.89 477.995 1191.88C477.675 1191.88 477.365 1192 477.132 1192.21L472.656 1196.69L468.181 1192.21Z" fill="white"/>
<rect x="581.885" y="1045.04" width="71.3835" height="196.684" rx="35.6917" fill="#2C3844"/>
<path d="M619.095 1084.52H603.401M619.095 1100.22V1084.52V1100.22ZM619.095 1084.52V1068.83V1084.52ZM619.095 1084.52H634.789H619.095Z" stroke="white" stroke-width="2" stroke-linecap="round"/>
<path d="M635.042 1202.99H602.388" stroke="white" stroke-width="2" stroke-linecap="round"/>
<circle cx="626.946" cy="601.194" r="23.9661" fill="#2C3844"/>
<g clip-path="url(#clip0)">
<path fill-rule="evenodd" clip-rule="evenodd" d="M631.975 590.718V594.682C634.715 596.179 636.465 599.11 636.465 602.407C636.465 607.224 632.456 611.13 627.512 611.13C622.572 611.13 618.563 607.225 618.563 602.407C618.563 599.004 620.29 596.081 623.162 594.643V590.715C618.152 592.36 614.812 596.947 614.812 602.407C614.812 609.245 620.499 614.785 627.511 614.785C634.523 614.785 640.213 609.245 640.213 602.407C640.214 597.046 636.847 592.448 631.975 590.718Z" fill="white"/>
<path fill-rule="evenodd" clip-rule="evenodd" d="M627.429 601.283C628.756 601.283 629.838 600.473 629.838 599.469V589.879C629.838 588.877 628.756 588.065 627.429 588.065C626.1 588.065 625.02 588.877 625.02 589.879V599.469C625.02 600.473 626.1 601.283 627.429 601.283Z" fill="white"/>
</g>
<circle cx="540" cy="672.33" r="5" fill="#C4C4C4"/>
<circle cx="540" cy="850.33" r="5" fill="#C4C4C4"/>
<ellipse cx="629.5" cy="757.33" rx="5.5" ry="5" fill="#C4C4C4"/>
<circle cx="446" cy="757.33" r="5" fill="#C4C4C4"/>
<defs>
<filter id="filter0_di" x="385" y="537" width="311" height="981.564" filterUnits="userSpaceOnUse" color-interpolation-filters="sRGB">
<feFlood flood-opacity="0" result="BackgroundImageFix"/>
<feColorMatrix in="SourceAlpha" type="matrix" values="0 0 0 0 0 0 0 0 0 0 0 0 0 0 0 0 0 0 127 0" result="hardAlpha"/>
<feOffset dy="23"/>
<feGaussianBlur stdDeviation="2"/>
<feComposite in2="hardAlpha" operator="out"/>
<feColorMatrix type="matrix" values="0 0 0 0 0 0 0 0 0 0 0 0 0 0 0 0 0 0 0.25 0"/>
<feBlend mode="normal" in2="BackgroundImageFix" result="effect1_dropShadow"/>
<feBlend mode="normal" in="SourceGraphic" in2="effect1_dropShadow" result="shape"/>
<feColorMatrix in="SourceAlpha" type="matrix" values="0 0 0 0 0 0 0 0 0 0 0 0 0 0 0 0 0 0 127 0" result="hardAlpha"/>
<feOffset dy="4"/>
<feGaussianBlur stdDeviation="2"/>
<feComposite in2="hardAlpha" operator="arithmetic" k2="-1" k3="1"/>
<feColorMatrix type="matrix" values="0 0 0 0 0 0 0 0 0 0 0 0 0 0 0 0 0 0 0.25 0"/>
<feBlend mode="normal" in2="shape" result="effect2_innerShadow"/>
</filter>
<clipPath id="clip0">
<rect width="29" height="27" fill="white" transform="translate(612.999 587.999)"/>
</clipPath>
</defs>
</svg>
