<svg width="1080" height="1920" viewBox="0 0 1080 1920" fill="none" xmlns="http://www.w3.org/2000/svg">
<rect width="1080" height="1920" fill="#41B06D"/>
<rect x="257" y="793" width="566.007" height="369.636" rx="41" fill="#332D2D"/>
<rect x="293" y="830" width="497.557" height="279.583" fill="#4F4F4F"/>
<path d="M264 1117H816V1121C816 1140.88 799.882 1157 780 1157H300C280.118 1157 264 1140.88 264 1121V1117Z" fill="white" stroke="#332D2D" stroke-width="14"/>
<g filter="url(#filter0_i)">
<path d="M511.37 1164H569.501L595.644 1216.88H476L511.37 1164Z" fill="#E7E0E0"/>
</g>
<path d="M480.68 1214.38L512.706 1166.5H567.948L591.619 1214.38H480.68Z" stroke="#332D2D" stroke-width="5"/>
<path d="M449.156 1224.68L454.557 1214.5H620.376L623.848 1224.68H449.156Z" fill="#E7E0E0" stroke="#332D2D" stroke-width="5"/>
<path d="M545.93 1140.72C545.109 1142.03 543.877 1143.03 542.427 1143.57C540.977 1144.1 539.39 1144.14 537.914 1143.68C536.438 1143.22 535.156 1142.28 534.269 1141.02C533.381 1139.75 532.937 1138.23 533.007 1136.68C533.077 1135.14 533.656 1133.66 534.654 1132.48C535.653 1131.3 537.014 1130.48 538.525 1130.16C540.037 1129.83 541.613 1130.02 543.009 1130.68C544.405 1131.34 545.542 1132.45 546.242 1133.83L540 1137L545.93 1140.72Z" fill="#332D2D"/>
<path d="M475.704 830H495L308.296 1108H289L475.704 830Z" fill="#616463"/>
<path d="M515.63 830H568L387.556 1108H330L515.63 830Z" fill="#616463"/>
<rect x="431" y="992" width="109" height="7" fill="#C4C4C4"/>
<rect x="431" y="992" width="83" height="7" fill="#616463"/>
<defs>
<filter id="filter0_i" x="475" y="1164" width="120.644" height="57.8799" filterUnits="userSpaceOnUse" color-interpolation-filters="sRGB">
<feFlood flood-opacity="0" result="BackgroundImageFix"/>
<feBlend mode="normal" in="SourceGraphic" in2="BackgroundImageFix" result="shape"/>
<feColorMatrix in="SourceAlpha" type="matrix" values="0 0 0 0 0 0 0 0 0 0 0 0 0 0 0 0 0 0 127 0" result="hardAlpha"/>
<feOffset dx="-1" dy="20"/>
<feGaussianBlur stdDeviation="2.5"/>
<feComposite in2="hardAlpha" operator="arithmetic" k2="-1" k3="1"/>
<feColorMatrix type="matrix" values="0 0 0 0 0 0 0 0 0 0 0 0 0 0 0 0 0 0 0.25 0"/>
<feBlend mode="normal" in2="shape" result="effect1_innerShadow"/>
</filter>
</defs>
</svg>
